<?xml version="1.0" encoding="UTF-8"?>
<svg width="40px" height="44px" viewBox="0 0 40 44" version="1.1" xmlns="http://www.w3.org/2000/svg" xmlns:xlink="http://www.w3.org/1999/xlink">
    <!-- Generator: Sketch 62 (91390) - https://sketch.com -->
    <title>Icon_calendar</title>
    <desc>Created with Sketch.</desc>
    <defs>
        <path d="M34,40 L6,40 C4.898,40 4,39.104 4,38 L4,20 L36,20 L36,38 C36,39.104 35.104,40 34,40 M6,8 L10,8 L10,10 C10,11.104 10.896,12 12,12 C13.104,12 14,11.104 14,10 L14,8 L26,8 L26,10 C26,11.104 26.894,12 28,12 C29.106,12 30,11.104 30,10 L30,8 L34,8 C35.104,8 36,8.898 36,10 L36,16 L4,16 L4,10 C4,8.898 4.898,8 6,8 M34,4 L30,4 L30,2 C30,0.896 29.106,0 28,0 C26.894,0 26,0.896 26,2 L26,4 L14,4 L14,2 C14,0.896 13.104,0 12,0 C10.896,0 10,0.896 10,2 L10,4 L6,4 C2.692,4 0,6.692 0,10 L0,38 C0,41.308 2.692,44 6,44 L34,44 C37.308,44 40,41.308 40,38 L40,10 C40,6.692 37.308,4 34,4" id="path-1"></path>
    </defs>
    <g id="Page-1" stroke="none" stroke-width="1" fill="none" fill-rule="evenodd">
        <g id="01.homepage" transform="translate(-282.000000, -1091.000000)">
            <g id="avantages" transform="translate(110.000000, 1054.000000)">
                <g id="01">
                    <g id="Icon_calendar" transform="translate(172.000000, 37.000000)">
                        <mask id="mask-2" fill="white">
                            <use xlink:href="#path-1"></use>
                        </mask>
                        <use id="Icon-Calendar" fill="#4370F3" xlink:href="#path-1"></use>
                    </g>
                </g>
            </g>
        </g>
    </g>
</svg>