<?xml version="1.0" encoding="UTF-8"?>
<svg width="37px" height="44px" viewBox="0 0 37 44" version="1.1" xmlns="http://www.w3.org/2000/svg" xmlns:xlink="http://www.w3.org/1999/xlink">
    <!-- Generator: Sketch 62 (91390) - https://sketch.com -->
    <title>Icon_localisation</title>
    <desc>Created with Sketch.</desc>
    <defs>
        <path d="M18.21875,0 C28.2645687,0 36.4375,8.22433333 36.4375,18.3333333 C36.4375,31.9898333 19.9313125,43.2208333 19.2298906,43.692 C18.9238156,43.8973333 18.5703719,44 18.21875,44 C17.8671281,44 17.5136844,43.8973333 17.2076094,43.692 C16.5061875,43.2208333 0,31.9898333 0,18.3333333 C0,8.22433333 8.17293125,0 18.21875,0 Z M18.21875,3.66666667 C10.1824594,3.66666667 3.64375,10.2465 3.64375,18.3333333 C3.64375,28.2571667 14.7626531,37.3321667 18.21875,39.9135 C21.6748469,37.3321667 32.79375,28.2571667 32.79375,18.3333333 C32.79375,10.2465 26.2550406,3.66666667 18.21875,3.66666667 Z M18.21875,11 C22.2378062,11 25.50625,14.289 25.50625,18.3333333 C25.50625,22.3776667 22.2378062,25.6666667 18.21875,25.6666667 C14.1996938,25.6666667 10.93125,22.3776667 10.93125,18.3333333 C10.93125,14.289 14.1996938,11 18.21875,11 Z M18.21875,14.6666667 C16.2092219,14.6666667 14.575,16.3111667 14.575,18.3333333 C14.575,20.3555 16.2092219,22 18.21875,22 C20.2282781,22 21.8625,20.3555 21.8625,18.3333333 C21.8625,16.3111667 20.2282781,14.6666667 18.21875,14.6666667 Z" id="path-1"></path>
    </defs>
    <g id="Page-1" stroke="none" stroke-width="1" fill="none" fill-rule="evenodd">
        <g id="01.homepage" transform="translate(-699.000000, -1092.000000)">
            <g id="avantages" transform="translate(110.000000, 1054.000000)">
                <g id="01" transform="translate(416.000000, 0.000000)">
                    <g id="Icon_localisation" transform="translate(173.000000, 38.000000)">
                        <mask id="mask-2" fill="white">
                            <use xlink:href="#path-1"></use>
                        </mask>
                        <use id="Icon-Map-Pin" fill="#4370F3" xlink:href="#path-1"></use>
                    </g>
                </g>
            </g>
        </g>
    </g>
</svg>