<?xml version="1.0" encoding="UTF-8"?>
<svg width="44px" height="38px" viewBox="0 0 44 38" version="1.1" xmlns="http://www.w3.org/2000/svg" xmlns:xlink="http://www.w3.org/1999/xlink">
    <!-- Generator: Sketch 61.2 (89653) - https://sketch.com -->
    <title>Icon-User-Group</title>
    <desc>Created with Sketch.</desc>
    <defs>
        <path d="M23.8333333,22.6666667 C28.8878333,22.6666667 33,26.7788333 33,31.8333333 L33,35.5 C33,36.5138333 32.1805,37.3333333 31.1666667,37.3333333 C30.1528333,37.3333333 29.3333333,36.5138333 29.3333333,35.5 L29.3333333,31.8333333 C29.3333333,28.801 26.8656667,26.3333333 23.8333333,26.3333333 L9.16666667,26.3333333 C6.13433333,26.3333333 3.66666667,28.801 3.66666667,31.8333333 L3.66666667,35.5 C3.66666667,36.5138333 2.84533333,37.3333333 1.83333333,37.3333333 C0.821333333,37.3333333 0,36.5138333 0,35.5 L0,31.8333333 C0,26.7788333 4.11216667,22.6666667 9.16666667,22.6666667 L23.8333333,22.6666667 Z M37.125,22.9636667 C41.1711667,24.0086667 43.9981667,27.657 44,31.8315 L44,35.5 C44,36.5138333 43.1805,37.3333333 42.1666667,37.3333333 C41.1528333,37.3333333 40.3333251,36.5138333 40.3333251,35.5 L40.3333251,31.8333333 C40.3315,29.329 38.6356667,27.14 36.2083333,26.513 C35.2275,26.26 34.639,25.259 34.892,24.28 C35.145,23.2991667 36.1441667,22.7033333 37.125,22.9636667 Z M16.5,0.666666667 C21.5545,0.666666667 25.6666667,4.77883333 25.6666667,9.83333333 C25.6666667,14.8878333 21.5545,19 16.5,19 C11.4455,19 7.33333333,14.8878333 7.33333333,9.83333333 C7.33333333,4.77883333 11.4455,0.666666667 16.5,0.666666667 Z M29.788,0.96165 C34.6848333,2.21565 37.6475,7.21881667 36.3953333,12.11565 C35.563,15.36065 33.033,17.8924833 29.788,18.7229833 C29.6358333,18.7614833 29.4818333,18.7798167 29.3315,18.7798167 C28.5156667,18.7798167 27.7676667,18.2298167 27.5568333,17.40115 C27.3075,16.4203167 27.8978333,15.42115 28.8786667,15.1699833 C30.8238333,14.6713167 32.3455,13.1533167 32.8423333,11.2063167 C33.594,8.26931667 31.8156667,5.26631667 28.8786667,4.51465 C27.8978333,4.26348333 27.3075,3.26431667 27.5568333,2.28348333 C27.808,1.30265 28.8108333,0.70865 29.788,0.96165 Z M16.5,4.33333333 C13.4676667,4.33333333 11,6.801 11,9.83333333 C11,12.8656667 13.4676667,15.3333333 16.5,15.3333333 C19.5323333,15.3333333 22,12.8656667 22,9.83333333 C22,6.801 19.5323333,4.33333333 16.5,4.33333333 Z" id="path-1"></path>
    </defs>
    <g id="Page-1" stroke="none" stroke-width="1" fill="none" fill-rule="evenodd">
        <g id="01.homepage" transform="translate(-1111.000000, -1094.000000)">
            <g id="avantages" transform="translate(110.000000, 1054.000000)">
                <g id="01" transform="translate(831.000000, 0.000000)">
                    <g id="Icon" transform="translate(170.000000, 40.000000)">
                        <mask id="mask-2" fill="white">
                            <use xlink:href="#path-1"></use>
                        </mask>
                        <use id="Icon-User-Group" fill="#4370F3" xlink:href="#path-1"></use>
                    </g>
                </g>
            </g>
        </g>
    </g>
</svg>